<?xml version="1.0" encoding="UTF-8"?>
<svg width="64" height="64" viewBox="0 0 64 64" xmlns="http://www.w3.org/2000/svg">
  <!-- 外枠の円 -->
  <circle cx="32" cy="32" r="30" fill="#ffffff" stroke="#333333" stroke-width="2"/>
  
  <!-- ルーレットの扇形 -->
  <path d="M32,32 L32,2 A30,30 0 0,1 59.4,16.6 Z" fill="#FF6B6B"/>
  <path d="M32,32 L59.4,16.6 A30,30 0 0,1 59.4,47.4 Z" fill="#4ECDC4"/>
  <path d="M32,32 L59.4,47.4 A30,30 0 0,1 32,62 Z" fill="#FFD93D"/>
  <path d="M32,32 L32,62 A30,30 0 0,1 4.6,47.4 Z" fill="#6C5CE7"/>
  <path d="M32,32 L4.6,47.4 A30,30 0 0,1 4.6,16.6 Z" fill="#FF9A76"/>
  <path d="M32,32 L4.6,16.6 A30,30 0 0,1 32,2 Z" fill="#67E0A3"/>
  
  <!-- 中心の円 -->
  <circle cx="32" cy="32" r="5" fill="#333333"/>
  
  <!-- 矢印 -->
  <path d="M62,32 L57,29 L57,35 Z" fill="#FF0000"/>
</svg>